<svg width="46" height="57" viewBox="0 0 46 57" fill="none" xmlns="http://www.w3.org/2000/svg">
<path d="M44.3874 19.1978C42.5464 20.325 41.0215 21.9007 39.9554 23.7777C38.8892 25.6546 38.3167 27.7714 38.2914 29.9299C38.2987 32.3592 39.0184 34.733 40.3615 36.7574C41.7046 38.7817 43.612 40.3676 45.8475 41.3186C44.9661 44.1623 43.6617 46.8571 41.9781 49.3125C39.5691 52.7804 37.0501 56.248 33.2175 56.248C29.3849 56.248 28.3991 54.0213 23.9823 54.0213C19.675 54.0213 18.1418 56.3211 14.6375 56.3211C11.1332 56.3211 8.68776 53.1088 5.8769 49.1666C2.16397 43.644 0.123383 37.1673 0 30.5137C0 19.5629 7.11816 13.7592 14.1264 13.7592C17.8498 13.7592 20.9526 16.2046 23.2888 16.2046C25.5155 16.2046 28.9834 13.6129 33.2175 13.6129C35.3945 13.5567 37.552 14.0367 39.4998 15.0106C41.4477 15.9846 43.1262 17.4225 44.3874 19.1978ZM31.21 8.97723C33.0765 6.78156 34.1331 4.01193 34.2032 1.13099C34.2064 0.751196 34.1697 0.372123 34.0937 0C30.8875 0.313191 27.9227 1.8413 25.8074 4.2709C23.9229 6.37907 22.8265 9.07474 22.7046 11.8998C22.706 12.2433 22.7427 12.5858 22.8142 12.9219C23.0669 12.9697 23.3235 12.9942 23.5808 12.9951C25.0584 12.8775 26.4967 12.4607 27.8082 11.77C29.1197 11.0793 30.2771 10.1291 31.21 8.97723Z" fill="#0C0C0C"/>
</svg>
