<svg width="150" height="48" viewBox="0 0 150 48" fill="none" xmlns="http://www.w3.org/2000/svg">
<rect x="1" y="1" width="148" height="46" rx="7" stroke="#0C68F4" stroke-width="2"/>
<path d="M34.19 29.75H23.54C22.55 29.75 21.6 29.33 20.93 28.6C20.26 27.87 19.92 26.89 20 25.9L20.83 15.94C20.86 15.63 20.75 15.33 20.54 15.1C20.33 14.87 20.04 14.75 19.73 14.75H18C17.59 14.75 17.25 14.41 17.25 14C17.25 13.59 17.59 13.25 18 13.25H19.74C20.47 13.25 21.16 13.56 21.65 14.09C21.92 14.39 22.12 14.74 22.23 15.13H34.72C35.73 15.13 36.66 15.53 37.34 16.25C38.01 16.98 38.35 17.93 38.27 18.94L37.73 26.44C37.62 28.27 36.02 29.75 34.19 29.75ZM22.28 16.62L21.5 26.02C21.45 26.6 21.64 27.15 22.03 27.58C22.42 28.01 22.96 28.24 23.54 28.24H34.19C35.23 28.24 36.17 27.36 36.25 26.32L36.79 18.82C36.83 18.23 36.64 17.67 36.25 17.26C35.86 16.84 35.32 16.61 34.73 16.61H22.28V16.62Z" fill="#0C68F4"/>
<path d="M32.25 34.75C31.15 34.75 30.25 33.85 30.25 32.75C30.25 31.65 31.15 30.75 32.25 30.75C33.35 30.75 34.25 31.65 34.25 32.75C34.25 33.85 33.35 34.75 32.25 34.75ZM32.25 32.25C31.97 32.25 31.75 32.47 31.75 32.75C31.75 33.03 31.97 33.25 32.25 33.25C32.53 33.25 32.75 33.03 32.75 32.75C32.75 32.47 32.53 32.25 32.25 32.25Z" fill="#0C68F4"/>
<path d="M24.25 34.75C23.15 34.75 22.25 33.85 22.25 32.75C22.25 31.65 23.15 30.75 24.25 30.75C25.35 30.75 26.25 31.65 26.25 32.75C26.25 33.85 25.35 34.75 24.25 34.75ZM24.25 32.25C23.97 32.25 23.75 32.47 23.75 32.75C23.75 33.03 23.97 33.25 24.25 33.25C24.53 33.25 24.75 33.03 24.75 32.75C24.75 32.47 24.53 32.25 24.25 32.25Z" fill="#0C68F4"/>
<path d="M37 20.75H25C24.59 20.75 24.25 20.41 24.25 20C24.25 19.59 24.59 19.25 25 19.25H37C37.41 19.25 37.75 19.59 37.75 20C37.75 20.41 37.41 20.75 37 20.75Z" fill="#0C68F4"/>
<path d="M50.277 29.5H48.7997L53.0724 17.8636H54.527L58.7997 29.5H57.3224L53.8452 19.7045H53.7543L50.277 29.5ZM50.8224 24.9545H56.777V26.2045H50.8224V24.9545ZM63.7259 29.6818C62.9986 29.6818 62.3565 29.4981 61.7997 29.1307C61.2429 28.7595 60.8073 28.2367 60.4929 27.5625C60.1785 26.8845 60.0213 26.0833 60.0213 25.1591C60.0213 24.2424 60.1785 23.447 60.4929 22.7727C60.8073 22.0985 61.2448 21.5777 61.8054 21.2102C62.366 20.8428 63.0137 20.6591 63.7486 20.6591C64.3168 20.6591 64.7656 20.7538 65.0952 20.9432C65.4285 21.1288 65.6823 21.3409 65.8565 21.5795C66.0346 21.8144 66.1728 22.0076 66.2713 22.1591H66.3849V17.8636H67.7259V29.5H66.4304V28.1591H66.2713C66.1728 28.3182 66.0327 28.5189 65.8509 28.7614C65.669 29 65.4096 29.214 65.0724 29.4034C64.7353 29.589 64.2865 29.6818 63.7259 29.6818ZM63.9077 28.4773C64.4455 28.4773 64.9001 28.3371 65.2713 28.0568C65.6425 27.7727 65.9247 27.3807 66.1179 26.8807C66.3111 26.3769 66.4077 25.7955 66.4077 25.1364C66.4077 24.4848 66.313 23.9148 66.1236 23.4261C65.9342 22.9337 65.6539 22.5511 65.2827 22.2784C64.9115 22.0019 64.4531 21.8636 63.9077 21.8636C63.3395 21.8636 62.866 22.0095 62.4872 22.3011C62.1122 22.589 61.83 22.9811 61.6406 23.4773C61.455 23.9697 61.3622 24.5227 61.3622 25.1364C61.3622 25.7576 61.4569 26.322 61.6463 26.8295C61.8395 27.3333 62.1236 27.7348 62.4986 28.0341C62.8774 28.3295 63.3471 28.4773 63.9077 28.4773ZM73.6634 29.6818C72.9361 29.6818 72.294 29.4981 71.7372 29.1307C71.1804 28.7595 70.7448 28.2367 70.4304 27.5625C70.116 26.8845 69.9588 26.0833 69.9588 25.1591C69.9588 24.2424 70.116 23.447 70.4304 22.7727C70.7448 22.0985 71.1823 21.5777 71.7429 21.2102C72.3035 20.8428 72.9512 20.6591 73.6861 20.6591C74.2543 20.6591 74.7031 20.7538 75.0327 20.9432C75.366 21.1288 75.6198 21.3409 75.794 21.5795C75.9721 21.8144 76.1103 22.0076 76.2088 22.1591H76.3224V17.8636H77.6634V29.5H76.3679V28.1591H76.2088C76.1103 28.3182 75.9702 28.5189 75.7884 28.7614C75.6065 29 75.3471 29.214 75.0099 29.4034C74.6728 29.589 74.224 29.6818 73.6634 29.6818ZM73.8452 28.4773C74.383 28.4773 74.8376 28.3371 75.2088 28.0568C75.58 27.7727 75.8622 27.3807 76.0554 26.8807C76.2486 26.3769 76.3452 25.7955 76.3452 25.1364C76.3452 24.4848 76.2505 23.9148 76.0611 23.4261C75.8717 22.9337 75.5914 22.5511 75.2202 22.2784C74.849 22.0019 74.3906 21.8636 73.8452 21.8636C73.277 21.8636 72.8035 22.0095 72.4247 22.3011C72.0497 22.589 71.7675 22.9811 71.5781 23.4773C71.3925 23.9697 71.2997 24.5227 71.2997 25.1364C71.2997 25.7576 71.3944 26.322 71.5838 26.8295C71.777 27.3333 72.0611 27.7348 72.4361 28.0341C72.8149 28.3295 73.2846 28.4773 73.8452 28.4773ZM88.6009 20.7727V21.9091H84.0781V20.7727H88.6009ZM85.3963 18.6818H86.7372V27C86.7372 27.3788 86.7921 27.6629 86.902 27.8523C87.0156 28.0379 87.1596 28.1629 87.3338 28.2273C87.5118 28.2879 87.6993 28.3182 87.8963 28.3182C88.044 28.3182 88.1652 28.3106 88.2599 28.2955C88.3546 28.2765 88.4304 28.2614 88.4872 28.25L88.7599 29.4545C88.669 29.4886 88.5421 29.5227 88.3793 29.5568C88.2164 29.5947 88.0099 29.6136 87.7599 29.6136C87.3812 29.6136 87.0099 29.5322 86.6463 29.3693C86.2865 29.2064 85.9872 28.9583 85.7486 28.625C85.5137 28.2917 85.3963 27.8712 85.3963 27.3636V18.6818ZM94.0696 29.6818C93.2817 29.6818 92.5904 29.4943 91.9957 29.1193C91.4048 28.7443 90.9427 28.2197 90.6094 27.5455C90.2798 26.8712 90.1151 26.0833 90.1151 25.1818C90.1151 24.2727 90.2798 23.4792 90.6094 22.8011C90.9427 22.1231 91.4048 21.5966 91.9957 21.2216C92.5904 20.8466 93.2817 20.6591 94.0696 20.6591C94.8575 20.6591 95.5469 20.8466 96.1378 21.2216C96.7325 21.5966 97.1946 22.1231 97.5241 22.8011C97.8575 23.4792 98.0241 24.2727 98.0241 25.1818C98.0241 26.0833 97.8575 26.8712 97.5241 27.5455C97.1946 28.2197 96.7325 28.7443 96.1378 29.1193C95.5469 29.4943 94.8575 29.6818 94.0696 29.6818ZM94.0696 28.4773C94.6681 28.4773 95.1605 28.3239 95.5469 28.017C95.9332 27.7102 96.2192 27.3068 96.4048 26.8068C96.5904 26.3068 96.6832 25.7652 96.6832 25.1818C96.6832 24.5985 96.5904 24.0549 96.4048 23.5511C96.2192 23.0473 95.9332 22.6402 95.5469 22.3295C95.1605 22.0189 94.6681 21.8636 94.0696 21.8636C93.4711 21.8636 92.9787 22.0189 92.5923 22.3295C92.206 22.6402 91.92 23.0473 91.7344 23.5511C91.5488 24.0549 91.456 24.5985 91.456 25.1818C91.456 25.7652 91.5488 26.3068 91.7344 26.8068C91.92 27.3068 92.206 27.7102 92.5923 28.017C92.9787 28.3239 93.4711 28.4773 94.0696 28.4773ZM108.116 29.6818C107.298 29.6818 106.594 29.4886 106.003 29.1023C105.412 28.7159 104.957 28.1837 104.639 27.5057C104.321 26.8277 104.162 26.053 104.162 25.1818C104.162 24.2955 104.325 23.5133 104.651 22.8352C104.98 22.1534 105.438 21.6212 106.026 21.2386C106.616 20.8523 107.306 20.6591 108.094 20.6591C108.707 20.6591 109.26 20.7727 109.753 21C110.245 21.2273 110.649 21.5455 110.963 21.9545C111.277 22.3636 111.473 22.8409 111.548 23.3864H110.207C110.105 22.9886 109.878 22.6364 109.526 22.3295C109.177 22.0189 108.707 21.8636 108.116 21.8636C107.594 21.8636 107.135 22 106.741 22.2727C106.351 22.5417 106.046 22.9223 105.827 23.4148C105.611 23.9034 105.503 24.4773 105.503 25.1364C105.503 25.8106 105.609 26.3977 105.821 26.8977C106.037 27.3977 106.34 27.786 106.73 28.0625C107.124 28.339 107.586 28.4773 108.116 28.4773C108.465 28.4773 108.781 28.4167 109.065 28.2955C109.349 28.1742 109.59 28 109.787 27.7727C109.984 27.5455 110.124 27.2727 110.207 26.9545H111.548C111.473 27.4697 111.285 27.9337 110.986 28.3466C110.69 28.7557 110.298 29.0814 109.81 29.3239C109.325 29.5625 108.76 29.6818 108.116 29.6818ZM116.077 29.7045C115.524 29.7045 115.022 29.6004 114.571 29.392C114.12 29.1799 113.762 28.875 113.497 28.4773C113.232 28.0758 113.099 27.5909 113.099 27.0227C113.099 26.5227 113.198 26.1174 113.395 25.8068C113.592 25.4924 113.855 25.2462 114.185 25.0682C114.514 24.8902 114.878 24.7576 115.276 24.6705C115.677 24.5795 116.08 24.5076 116.486 24.4545C117.016 24.3864 117.446 24.3352 117.776 24.3011C118.109 24.2633 118.351 24.2008 118.503 24.1136C118.658 24.0265 118.736 23.875 118.736 23.6591V23.6136C118.736 23.053 118.582 22.6174 118.276 22.3068C117.973 21.9962 117.512 21.8409 116.895 21.8409C116.255 21.8409 115.753 21.9811 115.389 22.2614C115.026 22.5417 114.77 22.8409 114.622 23.1591L113.349 22.7045C113.577 22.1742 113.88 21.7614 114.259 21.4659C114.641 21.1667 115.058 20.9583 115.509 20.8409C115.963 20.7197 116.41 20.6591 116.849 20.6591C117.13 20.6591 117.452 20.6932 117.815 20.7614C118.183 20.8258 118.537 20.9602 118.878 21.1648C119.223 21.3693 119.509 21.678 119.736 22.0909C119.963 22.5038 120.077 23.0568 120.077 23.75V29.5H118.736V28.3182H118.668C118.577 28.5076 118.425 28.7102 118.213 28.9261C118.001 29.142 117.719 29.3258 117.366 29.4773C117.014 29.6288 116.584 29.7045 116.077 29.7045ZM116.281 28.5C116.812 28.5 117.259 28.3958 117.622 28.1875C117.99 27.9792 118.266 27.7102 118.452 27.3807C118.641 27.0511 118.736 26.7045 118.736 26.3409V25.1136C118.679 25.1818 118.554 25.2443 118.361 25.3011C118.171 25.3542 117.952 25.4015 117.702 25.4432C117.455 25.4811 117.215 25.5152 116.98 25.5455C116.749 25.572 116.562 25.5947 116.418 25.6136C116.069 25.6591 115.743 25.733 115.44 25.8352C115.141 25.9337 114.899 26.0833 114.713 26.2841C114.531 26.4811 114.44 26.75 114.44 27.0909C114.44 27.5568 114.613 27.9091 114.957 28.1477C115.306 28.3826 115.747 28.5 116.281 28.5ZM122.524 29.5V20.7727H123.82V22.0909H123.911C124.07 21.6591 124.357 21.3087 124.774 21.0398C125.191 20.7708 125.661 20.6364 126.183 20.6364C126.282 20.6364 126.405 20.6383 126.553 20.642C126.7 20.6458 126.812 20.6515 126.888 20.6591V22.0227C126.842 22.0114 126.738 21.9943 126.575 21.9716C126.416 21.9451 126.248 21.9318 126.07 21.9318C125.645 21.9318 125.267 22.0208 124.933 22.1989C124.604 22.3731 124.342 22.6155 124.149 22.9261C123.96 23.233 123.865 23.5833 123.865 23.9773V29.5H122.524ZM132.82 20.7727V21.9091H128.297V20.7727H132.82ZM129.615 18.6818H130.956V27C130.956 27.3788 131.011 27.6629 131.121 27.8523C131.234 28.0379 131.378 28.1629 131.553 28.2273C131.731 28.2879 131.918 28.3182 132.115 28.3182C132.263 28.3182 132.384 28.3106 132.479 28.2955C132.573 28.2765 132.649 28.2614 132.706 28.25L132.979 29.4545C132.888 29.4886 132.761 29.5227 132.598 29.5568C132.435 29.5947 132.229 29.6136 131.979 29.6136C131.6 29.6136 131.229 29.5322 130.865 29.3693C130.505 29.2064 130.206 28.9583 129.967 28.625C129.732 28.2917 129.615 27.8712 129.615 27.3636V18.6818Z" fill="#0C68F4"/>
</svg>
