<svg width="110" height="48" viewBox="0 0 110 48" fill="none" xmlns="http://www.w3.org/2000/svg">
<rect width="110" height="48" rx="8" fill="#0C68F4"/>
<path d="M23.8977 20.7727C23.8295 20.197 23.553 19.75 23.0682 19.4318C22.5833 19.1136 21.9886 18.9545 21.2841 18.9545C20.7689 18.9545 20.3182 19.0379 19.9318 19.2045C19.5492 19.3712 19.25 19.6004 19.0341 19.892C18.822 20.1837 18.7159 20.5152 18.7159 20.8864C18.7159 21.197 18.7898 21.464 18.9375 21.6875C19.089 21.9072 19.2822 22.0909 19.517 22.2386C19.7519 22.3826 19.9981 22.5019 20.2557 22.5966C20.5133 22.6875 20.75 22.7614 20.9659 22.8182L22.1477 23.1364C22.4508 23.2159 22.7879 23.3258 23.1591 23.4659C23.5341 23.6061 23.892 23.7973 24.233 24.0398C24.5777 24.2784 24.8617 24.5852 25.0852 24.9602C25.3087 25.3352 25.4205 25.7955 25.4205 26.3409C25.4205 26.9697 25.2557 27.5379 24.9261 28.0455C24.6004 28.553 24.1231 28.9564 23.4943 29.2557C22.8693 29.5549 22.1098 29.7045 21.2159 29.7045C20.3826 29.7045 19.661 29.5701 19.0511 29.3011C18.4451 29.0322 17.9678 28.6572 17.6193 28.1761C17.2746 27.6951 17.0795 27.1364 17.0341 26.5H18.4886C18.5265 26.9394 18.6742 27.303 18.9318 27.5909C19.1932 27.875 19.5227 28.0871 19.9205 28.2273C20.322 28.3636 20.7538 28.4318 21.2159 28.4318C21.7538 28.4318 22.2367 28.3447 22.6648 28.1705C23.0928 27.9924 23.4318 27.7462 23.6818 27.4318C23.9318 27.1136 24.0568 26.7424 24.0568 26.3182C24.0568 25.9318 23.9489 25.6174 23.733 25.375C23.517 25.1326 23.233 24.9356 22.8807 24.7841C22.5284 24.6326 22.1477 24.5 21.7386 24.3864L20.3068 23.9773C19.3977 23.7159 18.678 23.3428 18.1477 22.858C17.6174 22.3731 17.3523 21.7386 17.3523 20.9545C17.3523 20.303 17.5284 19.7348 17.8807 19.25C18.2367 18.7614 18.714 18.3826 19.3125 18.1136C19.9148 17.8409 20.5871 17.7045 21.3295 17.7045C22.0795 17.7045 22.7462 17.839 23.3295 18.108C23.9129 18.3731 24.375 18.7367 24.7159 19.1989C25.0606 19.661 25.2424 20.1856 25.2614 20.7727H23.8977ZM28.8963 24.25V29.5H27.5554V17.8636H28.8963V22.1364H29.0099C29.2145 21.6856 29.5213 21.3277 29.9304 21.0625C30.3433 20.7936 30.8925 20.6591 31.5781 20.6591C32.1728 20.6591 32.6937 20.7784 33.1406 21.017C33.5876 21.2519 33.9342 21.6136 34.1804 22.1023C34.4304 22.5871 34.5554 23.2045 34.5554 23.9545V29.5H33.2145V24.0455C33.2145 23.3523 33.0346 22.8163 32.6747 22.4375C32.3187 22.0549 31.8243 21.8636 31.1918 21.8636C30.7524 21.8636 30.3584 21.9564 30.0099 22.142C29.6652 22.3277 29.3925 22.5985 29.1918 22.9545C28.9948 23.3106 28.8963 23.7424 28.8963 24.25ZM40.554 29.6818C39.7661 29.6818 39.0748 29.4943 38.4801 29.1193C37.8892 28.7443 37.4271 28.2197 37.0938 27.5455C36.7642 26.8712 36.5994 26.0833 36.5994 25.1818C36.5994 24.2727 36.7642 23.4792 37.0938 22.8011C37.4271 22.1231 37.8892 21.5966 38.4801 21.2216C39.0748 20.8466 39.7661 20.6591 40.554 20.6591C41.3419 20.6591 42.0313 20.8466 42.6222 21.2216C43.2169 21.5966 43.679 22.1231 44.0085 22.8011C44.3419 23.4792 44.5085 24.2727 44.5085 25.1818C44.5085 26.0833 44.3419 26.8712 44.0085 27.5455C43.679 28.2197 43.2169 28.7443 42.6222 29.1193C42.0313 29.4943 41.3419 29.6818 40.554 29.6818ZM40.554 28.4773C41.1525 28.4773 41.6449 28.3239 42.0312 28.017C42.4176 27.7102 42.7036 27.3068 42.8892 26.8068C43.0748 26.3068 43.1676 25.7652 43.1676 25.1818C43.1676 24.5985 43.0748 24.0549 42.8892 23.5511C42.7036 23.0473 42.4176 22.6402 42.0312 22.3295C41.6449 22.0189 41.1525 21.8636 40.554 21.8636C39.9555 21.8636 39.4631 22.0189 39.0767 22.3295C38.6903 22.6402 38.4044 23.0473 38.2188 23.5511C38.0331 24.0549 37.9403 24.5985 37.9403 25.1818C37.9403 25.7652 38.0331 26.3068 38.2188 26.8068C38.4044 27.3068 38.6903 27.7102 39.0767 28.017C39.4631 28.3239 39.9555 28.4773 40.554 28.4773ZM46.5554 32.7727V20.7727H47.8509V22.1591H48.0099C48.1084 22.0076 48.2448 21.8144 48.419 21.5795C48.5971 21.3409 48.8509 21.1288 49.1804 20.9432C49.5137 20.7538 49.9645 20.6591 50.5327 20.6591C51.2675 20.6591 51.9152 20.8428 52.4759 21.2102C53.0365 21.5777 53.474 22.0985 53.7884 22.7727C54.1027 23.447 54.2599 24.2424 54.2599 25.1591C54.2599 26.0833 54.1027 26.8845 53.7884 27.5625C53.474 28.2367 53.0384 28.7595 52.4815 29.1307C51.9247 29.4981 51.2827 29.6818 50.5554 29.6818C49.9948 29.6818 49.5459 29.589 49.2088 29.4034C48.8717 29.214 48.6122 29 48.4304 28.7614C48.2486 28.5189 48.1084 28.3182 48.0099 28.1591H47.8963V32.7727H46.5554ZM47.8736 25.1364C47.8736 25.7955 47.9702 26.3769 48.1634 26.8807C48.3565 27.3807 48.6387 27.7727 49.0099 28.0568C49.3812 28.3371 49.8357 28.4773 50.3736 28.4773C50.9342 28.4773 51.402 28.3295 51.777 28.0341C52.1558 27.7348 52.4399 27.3333 52.6293 26.8295C52.8224 26.322 52.919 25.7576 52.919 25.1364C52.919 24.5227 52.8243 23.9697 52.6349 23.4773C52.4493 22.9811 52.1671 22.589 51.7884 22.3011C51.4134 22.0095 50.9418 21.8636 50.3736 21.8636C49.8281 21.8636 49.3698 22.0019 48.9986 22.2784C48.6274 22.5511 48.3471 22.9337 48.1577 23.4261C47.9683 23.9148 47.8736 24.4848 47.8736 25.1364ZM70.2145 17.8636V29.5H68.8509L62.5099 20.3636H62.3963V29.5H60.9872V17.8636H62.3509L68.7145 27.0227H68.8281V17.8636H70.2145ZM76.3977 29.6818C75.6098 29.6818 74.9186 29.4943 74.3239 29.1193C73.733 28.7443 73.2708 28.2197 72.9375 27.5455C72.608 26.8712 72.4432 26.0833 72.4432 25.1818C72.4432 24.2727 72.608 23.4792 72.9375 22.8011C73.2708 22.1231 73.733 21.5966 74.3239 21.2216C74.9186 20.8466 75.6098 20.6591 76.3977 20.6591C77.1856 20.6591 77.875 20.8466 78.4659 21.2216C79.0606 21.5966 79.5227 22.1231 79.8523 22.8011C80.1856 23.4792 80.3523 24.2727 80.3523 25.1818C80.3523 26.0833 80.1856 26.8712 79.8523 27.5455C79.5227 28.2197 79.0606 28.7443 78.4659 29.1193C77.875 29.4943 77.1856 29.6818 76.3977 29.6818ZM76.3977 28.4773C76.9962 28.4773 77.4886 28.3239 77.875 28.017C78.2614 27.7102 78.5473 27.3068 78.733 26.8068C78.9186 26.3068 79.0114 25.7652 79.0114 25.1818C79.0114 24.5985 78.9186 24.0549 78.733 23.5511C78.5473 23.0473 78.2614 22.6402 77.875 22.3295C77.4886 22.0189 76.9962 21.8636 76.3977 21.8636C75.7992 21.8636 75.3068 22.0189 74.9205 22.3295C74.5341 22.6402 74.2481 23.0473 74.0625 23.5511C73.8769 24.0549 73.7841 24.5985 73.7841 25.1818C73.7841 25.7652 73.8769 26.3068 74.0625 26.8068C74.2481 27.3068 74.5341 27.7102 74.9205 28.017C75.3068 28.3239 75.7992 28.4773 76.3977 28.4773ZM84.0795 29.5L81.4205 20.7727H82.8295L84.7159 27.4545H84.8068L86.6705 20.7727H88.1023L89.9432 27.4318H90.0341L91.9205 20.7727H93.3295L90.6705 29.5H89.3523L87.4432 22.7955H87.3068L85.3977 29.5H84.0795Z" fill="white"/>
</svg>
