<svg width="48" height="48" viewBox="0 0 48 48" fill="none" xmlns="http://www.w3.org/2000/svg">
<path d="M34.4803 45.5H13.5203C7.92035 45.5 4.36035 42.16 4.04035 36.58L3.00035 20.08C2.84035 17.58 3.70035 15.18 5.42035 13.36C7.12035 11.54 9.52035 10.5 12.0003 10.5C12.6403 10.5 13.2603 10.12 13.5603 9.52L15.0003 6.66C16.1803 4.32 19.1403 2.5 21.7203 2.5H26.3003C28.8803 2.5 31.8203 4.32 33.0003 6.64L34.4403 9.56C34.7403 10.12 35.3403 10.5 36.0003 10.5C38.4803 10.5 40.8803 11.54 42.5803 13.36C44.3003 15.2 45.1603 17.58 45.0003 20.08L43.9603 36.6C43.6003 42.26 40.1403 45.5 34.4803 45.5ZM21.7203 5.5C20.2403 5.5 18.3603 6.66 17.6803 8L16.2403 10.88C15.4003 12.5 13.7803 13.5 12.0003 13.5C10.3203 13.5 8.76035 14.18 7.60035 15.4C6.46035 16.62 5.88035 18.22 6.00035 19.88L7.04035 36.4C7.28035 40.44 9.46035 42.5 13.5203 42.5H34.4803C38.5203 42.5 40.7003 40.44 40.9603 36.4L42.0003 19.88C42.1003 18.22 41.5403 16.62 40.4003 15.4C39.2403 14.18 37.6803 13.5 36.0003 13.5C34.2203 13.5 32.6003 12.5 31.7603 10.92L30.3003 8C29.6403 6.68 27.7603 5.52 26.2803 5.52H21.7203V5.5Z" fill="#444444"/>
<path d="M27 17.5H21C20.18 17.5 19.5 16.82 19.5 16C19.5 15.18 20.18 14.5 21 14.5H27C27.82 14.5 28.5 15.18 28.5 16C28.5 16.82 27.82 17.5 27 17.5Z" fill="#444444"/>
<path d="M24 37.5C19.58 37.5 16 33.92 16 29.5C16 25.08 19.58 21.5 24 21.5C28.42 21.5 32 25.08 32 29.5C32 33.92 28.42 37.5 24 37.5ZM24 24.5C21.24 24.5 19 26.74 19 29.5C19 32.26 21.24 34.5 24 34.5C26.76 34.5 29 32.26 29 29.5C29 26.74 26.76 24.5 24 24.5Z" fill="#444444"/>
</svg>
