<svg width="174" height="30" viewBox="0 0 174 30" fill="none" xmlns="http://www.w3.org/2000/svg">
<path d="M28.382 26.4852C20.3 26.4852 13.7501 21.1962 13.7501 14.6724C13.7501 8.14811 20.3 2.86422 28.382 2.86422C31.2307 2.86422 33.8903 3.51991 36.137 4.65644L28.382 14.6724L42.9815 7.86893C41.3954 5.82927 39.1204 4.07178 36.3695 2.73813C32.869 1.04675 27.9996 0 22.6152 0C14.9346 0 8.19628 2.25255 4.43852 5.62585C1.65638 8.11953 0 11.258 0 14.6722C0 18.0888 1.65638 21.2296 4.43852 23.725C8.20606 27.1025 14.844 29.3419 22.3979 29.3419C29.9508 29.3419 36.5868 27.1007 40.3567 23.725C40.5631 23.5391 40.763 23.3515 40.9521 23.1568L40.3828 21.4347C37.7341 24.4861 33.347 26.4852 28.382 26.4852Z" fill="#C91433"/>
<path d="M76.7858 28.6321L70.6583 10.1838C69.6739 7.20265 66.3103 5.01147 62.3057 5.01147C61.2671 5.01147 60.2719 5.16124 59.3485 5.43235L46.157 9.30368H59.7244L62.0428 16.2916C59.7939 14.7294 56.8649 13.779 53.6577 13.779C47.289 13.779 42.1328 17.2233 42.1328 21.472C42.1328 25.7211 47.289 29.1705 53.6577 29.1705C58.2425 29.1705 62.297 27.359 64.798 24.5759L66.143 28.6321H76.7858ZM58.0947 25.7667C55.157 25.7667 52.7755 23.8464 52.7755 21.472C52.7755 19.1011 55.157 17.1791 58.0947 17.1791C61.0324 17.1791 63.4161 19.1011 63.4161 21.472C63.4161 23.8464 61.0324 25.7667 58.0947 25.7667Z" fill="#C91433"/>
<path d="M101.769 5.0144C100.965 5.0144 100.204 5.15785 99.5261 5.41476L91.0563 8.60042C90.6369 6.5655 88.4467 5.0144 85.8045 5.0144C85.0048 5.0144 84.2422 5.15785 83.5555 5.41476L73.2148 9.30346H80.4853V28.6321H91.128V11.4538C91.128 10.2685 92.3165 9.30363 93.7898 9.30363C95.2543 9.30363 96.4515 10.2685 96.4515 11.4538V28.6321H107.09V9.30346C107.09 6.93306 104.706 5.0144 101.769 5.0144Z" fill="#C91433"/>
<path d="M168.511 5.0144C167.705 5.0144 166.94 5.15785 166.251 5.41476L157.79 8.60042C157.373 6.5655 155.183 5.0144 152.541 5.0144C151.741 5.0144 150.978 5.15785 150.289 5.41476L139.953 9.30346H147.221V28.6321H157.862V11.4538C157.862 10.2685 159.053 9.30363 160.526 9.30363C161.995 9.30363 163.183 10.2685 163.183 11.4538V28.6321H173.83V9.30346C173.83 6.93306 171.445 5.0144 168.511 5.0144Z" fill="#C91433"/>
<path d="M141.674 17.1787C141.674 23.8971 134.927 29.3421 126.605 29.3421C118.276 29.3421 111.525 23.8971 111.525 17.1787C111.525 10.4621 118.276 5.0144 126.605 5.0144C134.927 5.0144 141.674 10.4623 141.674 17.1787ZM127.229 8.70617C126.755 7.27485 124.932 6.42521 123.159 6.80996C121.388 7.19313 120.33 8.66531 120.806 10.0965L125.975 25.6507C126.453 27.0834 128.272 27.9322 130.045 27.5534C131.818 27.1658 132.872 25.6945 132.396 24.2636L127.229 8.70617Z" fill="#C91433"/>
</svg>
