<svg width="84" height="44" viewBox="0 0 84 44" fill="none" xmlns="http://www.w3.org/2000/svg">
<rect x="0.5" y="0.5" width="83" height="43" rx="7.5" stroke="#717171"/>
<path d="M24.294 29V18.0909H25.5227V19.767H25.6364C25.8542 19.2036 26.2164 18.7609 26.723 18.4389C27.2344 18.1122 27.8475 17.9489 28.5625 17.9489C29.3153 17.9489 29.9332 18.1264 30.4162 18.4815C30.9039 18.8319 31.2685 19.3149 31.5099 19.9304H31.6023C31.8485 19.3243 32.2486 18.8437 32.8026 18.4886C33.3613 18.1288 34.0384 17.9489 34.8338 17.9489C35.8471 17.9489 36.6473 18.2685 37.2344 18.9077C37.8215 19.5421 38.1151 20.4702 38.1151 21.6918V29H36.8509V21.6918C36.8509 20.83 36.6307 20.1837 36.1903 19.7528C35.75 19.322 35.17 19.1065 34.4503 19.1065C33.617 19.1065 32.9754 19.3622 32.5256 19.8736C32.0758 20.3849 31.8509 21.0336 31.8509 21.8196V29H30.5582V21.5781C30.5582 20.8395 30.3523 20.2429 29.9403 19.7884C29.5284 19.3338 28.9484 19.1065 28.2003 19.1065C27.6984 19.1065 27.2462 19.2296 26.8438 19.4759C26.446 19.7221 26.1312 20.0653 25.8991 20.5057C25.6719 20.9413 25.5582 21.4432 25.5582 22.0114V29H24.294ZM41.4762 29V18.0909H42.7475V29H41.4762ZM42.1225 16.2159C41.8621 16.2159 41.6396 16.1283 41.4549 15.9531C41.2702 15.7732 41.1779 15.5578 41.1779 15.3068C41.1779 15.0559 41.2702 14.8428 41.4549 14.6676C41.6396 14.4877 41.8621 14.3977 42.1225 14.3977C42.3829 14.3977 42.6055 14.4877 42.7901 14.6676C42.9748 14.8428 43.0671 15.0559 43.0671 15.3068C43.0671 15.5578 42.9748 15.7732 42.7901 15.9531C42.6055 16.1283 42.3829 16.2159 42.1225 16.2159ZM47.3551 22.1818V29H46.0909V18.0909H47.3196V19.8026H47.4332C47.6889 19.2438 48.0866 18.7964 48.6264 18.4602C49.1709 18.1193 49.8433 17.9489 50.6435 17.9489C51.3774 17.9489 52.0213 18.1027 52.5753 18.4105C53.134 18.7135 53.5672 19.161 53.875 19.7528C54.1875 20.3447 54.3438 21.0715 54.3438 21.9332V29H53.0795V22.0114C53.0795 21.1165 52.8286 20.4086 52.3267 19.8878C51.8295 19.367 51.1619 19.1065 50.3239 19.1065C49.7509 19.1065 49.242 19.2296 48.7969 19.4759C48.3518 19.7221 47.9991 20.0772 47.7386 20.5412C47.483 21.0005 47.3551 21.5473 47.3551 22.1818ZM58.6815 29.1065C58.4021 29.1065 58.1606 29.0071 57.957 28.8082C57.7582 28.6046 57.6587 28.3632 57.6587 28.0838C57.6587 27.7997 57.7582 27.5582 57.957 27.3594C58.1606 27.1605 58.4021 27.0611 58.6815 27.0611C58.9656 27.0611 59.207 27.1605 59.4059 27.3594C59.6048 27.5582 59.7042 27.7997 59.7042 28.0838C59.7042 28.2685 59.6568 28.4389 59.5621 28.5952C59.4722 28.7514 59.3491 28.8769 59.1928 28.9716C59.0413 29.0616 58.8709 29.1065 58.6815 29.1065Z" fill="#B4B4B4"/>
</svg>
