<svg width="90" height="68" viewBox="0 0 90 68" fill="none" xmlns="http://www.w3.org/2000/svg">
<path d="M13.7431 11.9082C13.7431 11.9082 6.81539 18.5364 6.44091 25.539V26.8496C6.74049 32.5041 11.0095 35.8369 11.0095 35.8369C17.8623 42.54 34.4514 50.9656 38.3459 52.8754C38.3459 52.8754 38.5706 52.9878 38.7204 52.838L38.7953 52.6882V52.5384C28.1603 29.3586 13.7431 11.9082 13.7431 11.9082ZM36.1365 58.5674C36.0616 58.2678 35.7621 58.2678 35.7621 58.2678L8.12604 59.2414C11.1218 64.5964 16.1772 68.7156 21.4572 67.4798C25.0522 66.5436 33.2905 60.8142 35.9867 58.867C36.2114 58.6797 36.1365 58.5299 36.1365 58.5299V58.5674ZM36.4361 55.6465C24.3032 47.4456 0.786391 34.9008 0.786391 34.9008C0.224683 36.6233 0.0374472 38.271 0 39.7689V40.031C0 44.0379 1.49789 46.8464 1.49789 46.8464C4.49366 53.175 10.2605 55.0848 10.2605 55.0848C12.8818 56.2082 15.5031 56.2457 15.5031 56.2457C15.9525 56.3205 31.9799 56.2457 36.2489 56.2457C36.4361 56.2457 36.5484 56.0584 36.5484 56.0584V55.8337C36.5484 55.7214 36.4361 55.6465 36.4361 55.6465ZM33.9271 0.861285C31.2721 1.53919 28.9045 3.05081 27.1722 5.17402C25.44 7.29723 24.4344 9.92007 24.3032 12.6571V14.1925C24.4156 16.4393 24.9024 18.1244 24.9024 18.1244C27.3739 28.9841 39.357 46.7715 41.9408 50.5162C42.1281 50.7035 42.3153 50.6286 42.3153 50.6286C42.3872 50.5975 42.4476 50.5447 42.4879 50.4775C42.5282 50.4103 42.5464 50.3322 42.54 50.2541C46.5094 10.5601 38.3834 0 38.3834 0C37.185 0.0748943 33.9271 0.861285 33.9271 0.861285ZM65.0045 9.36179C65.0045 9.36179 63.1696 2.6213 55.8674 0.823838C55.8674 0.823838 53.733 0.299577 51.4861 0C51.4861 0 43.3226 10.5227 47.292 50.2916C47.3295 50.5537 47.5167 50.5911 47.5167 50.5911C47.7789 50.7035 47.8912 50.4788 47.8912 50.4788C50.5874 46.6217 62.4956 28.9092 64.9297 18.1244C64.9297 18.1244 66.2778 12.8818 65.0045 9.36179ZM54.07 58.3053C54.07 58.3053 53.8078 58.3052 53.733 58.4925C53.733 58.4925 53.6955 58.7546 53.8453 58.867C56.4666 60.7768 64.5177 66.3564 68.3748 67.4798C68.3748 67.4798 68.974 67.6671 69.985 67.7045H70.5093C73.0931 67.6296 77.6243 66.3189 81.7434 59.2414L54.0325 58.3053H54.07ZM83.3911 26.8122C83.9154 19.0981 76.1264 11.9456 76.1264 11.9082C76.1264 11.9082 61.7092 29.3586 51.1491 52.3512C51.1491 52.3512 51.0368 52.6507 51.224 52.838L51.3738 52.8754H51.5985C55.5679 50.8907 72.0446 42.5025 78.86 35.8744C78.86 35.8744 83.1664 32.3918 83.3911 26.8122ZM89.0831 34.8259C89.0831 34.8259 65.5663 47.4456 53.4334 55.6091C53.4334 55.6091 53.2461 55.7588 53.321 56.021C53.321 56.021 53.4334 56.2457 53.5832 56.2457C57.927 56.2457 74.4038 56.2457 74.8157 56.1708C74.8157 56.1708 76.9502 56.0959 79.5715 55.0848C79.5715 55.0848 85.4133 53.2124 88.4465 46.5843C88.4465 46.5843 91.1801 41.1544 89.0831 34.8259Z" fill="#C91433"/>
</svg>
