<svg width="32" height="32" viewBox="0 0 32 32" fill="none" xmlns="http://www.w3.org/2000/svg">
<g clip-path="url(#clip0_2919_46674)">
<path d="M15.9995 2.81702C23.2632 2.81702 29.1829 8.73596 29.1831 15.9996C29.1831 23.2635 23.2633 29.1832 15.9995 29.1832C8.73584 29.1831 2.81689 23.2633 2.81689 15.9996C2.81707 8.73607 8.73594 2.81719 15.9995 2.81702ZM18.4927 10.4801C18.0474 10.035 17.3119 10.0349 16.8667 10.4801L12.1606 15.1871C11.7154 15.6324 11.7154 16.3679 12.1606 16.8131L16.8667 21.5192C17.0963 21.7488 17.3892 21.8571 17.6802 21.8571C17.971 21.857 18.2632 21.7487 18.4927 21.5192C18.9377 21.074 18.9377 20.3394 18.4927 19.8942L14.5981 15.9996L18.4927 12.1061C18.9379 11.6608 18.9379 10.9253 18.4927 10.4801Z" fill="white" stroke="#0C68F4" stroke-width="0.3"/>
</g>
<defs>
<clipPath id="clip0_2919_46674">
<rect width="32" height="32" rx="16" fill="white"/>
</clipPath>
</defs>
</svg>
