<svg width="153" height="50" viewBox="0 0 153 50" fill="none" xmlns="http://www.w3.org/2000/svg">
<path d="M0 49.026V0H152.606V49.026H0ZM31.827 30.7638H19.605V10.3457H14.153V35.6725H31.827V30.7638ZM50.445 19.049C49.4715 17.9805 48.2728 17.1395 46.9347 16.5862C45.5967 16.033 44.1523 15.7812 42.7051 15.8489C41.3521 15.8031 40.0037 16.0307 38.7413 16.518C37.479 17.0052 36.3287 17.7419 35.36 18.6838C34.3913 19.6257 33.624 20.7532 33.1046 21.9983C32.5852 23.2434 32.3243 24.5804 32.3378 25.9286C32.3378 31.8117 36.8064 36.0084 43.3008 36.0084C46.7088 36.0133 49.9801 34.6741 52.3993 32.2836L48.9989 29.6828C47.4572 31.0518 45.452 31.7884 43.3869 31.7443C42.5947 31.781 41.8031 31.6605 41.0581 31.3897C40.3132 31.1189 39.6297 30.7032 39.0475 30.1669L52.7968 24.4885C52.5515 22.4894 51.7376 20.6017 50.4511 19.0478L50.445 19.049ZM74.4374 23.5962C74.4714 22.555 74.2876 21.5182 73.8975 20.5516C73.5074 19.5851 72.9196 18.7099 72.1715 17.9818C71.4234 17.2537 70.5314 16.6887 69.5521 16.3225C68.5728 15.9563 67.5278 15.7971 66.4834 15.855C65.2519 15.8606 64.0378 16.1445 62.9324 16.6852C61.8271 17.226 60.8594 18.0095 60.1022 18.9767V16.1688H54.7229V35.6664H60.1022V24.5706C60.1093 24.0065 60.231 23.4497 60.4599 22.9336C60.6888 22.4176 61.0202 21.953 61.4341 21.5679C61.8481 21.1828 62.336 20.8851 62.8685 20.6928C63.4011 20.5005 63.9672 20.4174 64.5328 20.4487C65.1025 20.4196 65.6725 20.5035 66.2094 20.6955C66.7464 20.8875 67.2397 21.1839 67.6607 21.5674C68.0817 21.9509 68.4221 22.4138 68.6619 22.9294C68.9018 23.4449 69.0364 24.0028 69.058 24.5706V35.6664H74.4374V23.5937V23.5962ZM87.1222 15.855C85.1354 15.925 83.2132 16.5758 81.5952 17.7262C79.9771 18.8766 78.7348 20.4757 78.0231 22.3244C77.3113 24.173 77.1616 26.1894 77.5925 28.1222C78.0234 30.0551 79.0159 31.8189 80.4464 33.1938C81.8769 34.5688 83.682 35.4941 85.6369 35.8544C87.5917 36.2147 89.6098 35.9942 91.4397 35.2202C93.2695 34.4463 94.8302 33.1531 95.9272 31.502C97.0243 29.8508 97.6091 27.9146 97.6089 25.9347C97.5951 24.5838 97.3118 23.2491 96.7755 22.0082C96.2391 20.7674 95.4604 19.645 94.4846 18.7065C93.5088 17.7681 92.3554 17.0321 91.0915 16.5415C89.8275 16.0509 88.4783 15.8155 87.1222 15.8489V15.855ZM112.646 16.1786L107.786 29.4573L102.922 16.1786H96.7844L104.839 35.6664H110.729L118.784 16.1786H112.646ZM128.512 15.8489C126.525 15.9189 124.603 16.5696 122.985 17.72C121.367 18.8704 120.124 20.4696 119.413 22.3183C118.701 24.1669 118.551 26.1833 118.982 28.1161C119.413 30.0489 120.405 31.8127 121.836 33.1877C123.266 34.5626 125.072 35.4879 127.026 35.8483C128.981 36.2086 130.999 35.9881 132.829 35.2141C134.659 34.4402 136.22 33.147 137.317 31.4958C138.414 29.8447 138.999 27.9085 138.998 25.9286C138.984 24.5782 138.7 23.2442 138.163 22.004C137.627 20.7638 136.848 19.6422 135.872 18.7044C134.896 17.7666 133.743 17.0312 132.48 16.541C131.216 16.0508 129.867 15.8155 128.512 15.8489ZM128.512 31.4146C127.803 31.4047 127.103 31.2542 126.453 30.9716C125.803 30.6891 125.216 30.2804 124.727 29.7693C124.238 29.2583 123.856 28.6551 123.603 27.9952C123.351 27.3353 123.233 26.6319 123.257 25.9262C123.207 25.2205 123.304 24.5123 123.542 23.8459C123.781 23.1796 124.155 22.5694 124.641 22.0539C125.127 21.5384 125.715 21.1286 126.368 20.8502C127.021 20.5719 127.725 20.431 128.435 20.4365C129.145 20.4463 129.845 20.597 130.494 20.8796C131.144 21.1621 131.731 21.571 132.221 22.0822C132.71 22.5934 133.092 23.1967 133.344 23.8567C133.597 24.5167 133.714 25.2203 133.69 25.9262C133.734 26.6303 133.632 27.3359 133.392 27.9994C133.151 28.6629 132.776 29.2704 132.291 29.7843C131.806 30.2982 131.22 30.7078 130.57 30.9878C129.92 31.2677 129.219 31.4122 128.51 31.4122L128.512 31.4146ZM87.1234 31.4146C86.4144 31.4047 85.7145 31.2542 85.0646 30.9716C84.4147 30.6891 83.828 30.2804 83.3386 29.7693C82.8493 29.2583 82.4672 28.6551 82.2148 27.9952C81.9623 27.3353 81.8445 26.6319 81.8683 25.9262C81.8187 25.2202 81.9163 24.5116 82.1549 23.845C82.3935 23.1783 82.768 22.5681 83.2549 22.0525C83.7417 21.5369 84.3303 21.1272 84.9838 20.8491C85.6372 20.571 86.3414 20.4305 87.052 20.4365C87.7605 20.447 88.4598 20.598 89.109 20.8807C89.7582 21.1635 90.3443 21.5722 90.8331 22.0831C91.3219 22.5939 91.7036 23.1967 91.9558 23.8561C92.208 24.5156 92.3258 25.2184 92.3022 25.9237C92.346 26.6281 92.2446 27.3339 92.0041 27.9977C91.7636 28.6615 91.3892 29.2692 90.9039 29.7835C90.4186 30.2977 89.8326 30.7075 89.1823 30.9876C88.5319 31.2677 87.8308 31.4122 87.1222 31.4122L87.1234 31.4146ZM38.6758 22.0507C39.1605 21.423 39.7885 20.9195 40.5076 20.5819C41.2268 20.2443 42.0164 20.0822 42.811 20.1092C43.6982 20.104 44.5671 20.3599 45.3087 20.8449C46.0504 21.3298 46.6316 22.0222 46.9793 22.8351L37.583 26.7192C37.3111 25.0815 37.7019 23.4033 38.6697 22.0519L38.6758 22.0507Z" fill="#0C0C0C"/>
</svg>
