<svg width="48" height="48" viewBox="0 0 48 48" fill="none" xmlns="http://www.w3.org/2000/svg">
<path d="M30 45.5H18C9.18 45.5 6.5 42.82 6.5 34V14C6.5 5.18 9.18 2.5 18 2.5H30C38.82 2.5 41.5 5.18 41.5 14V34C41.5 42.82 38.82 45.5 30 45.5ZM18 5.5C10.84 5.5 9.5 6.86 9.5 14V34C9.5 41.14 10.84 42.5 18 42.5H30C37.16 42.5 38.5 41.14 38.5 34V14C38.5 6.86 37.16 5.5 30 5.5H18Z" fill="#444444"/>
<path d="M28 12.5H20C19.18 12.5 18.5 11.82 18.5 11C18.5 10.18 19.18 9.5 20 9.5H28C28.82 9.5 29.5 10.18 29.5 11C29.5 11.82 28.82 12.5 28 12.5Z" fill="#444444"/>
<path d="M24.0004 39.72C21.4604 39.72 19.4004 37.66 19.4004 35.12C19.4004 32.58 21.4604 30.52 24.0004 30.52C26.5404 30.52 28.6004 32.58 28.6004 35.12C28.6004 37.66 26.5404 39.72 24.0004 39.72ZM24.0004 33.5C23.1204 33.5 22.4004 34.22 22.4004 35.1C22.4004 35.98 23.1204 36.7 24.0004 36.7C24.8804 36.7 25.6004 35.98 25.6004 35.1C25.6004 34.22 24.8804 33.5 24.0004 33.5Z" fill="#444444"/>
</svg>
