<svg width="32" height="32" viewBox="0 0 32 32" fill="none" xmlns="http://www.w3.org/2000/svg">
<g clip-path="url(#clip0_2919_46672)">
<path d="M15.9995 2.81702C23.2632 2.81702 29.1829 8.73596 29.1831 15.9996C29.1831 23.2635 23.2633 29.1832 15.9995 29.1832C8.73584 29.1831 2.81689 23.2633 2.81689 15.9996C2.81707 8.73607 8.73594 2.81719 15.9995 2.81702ZM15.1196 10.4801C14.6744 10.0349 13.9389 10.035 13.4937 10.4801C13.0484 10.9253 13.0484 11.6608 13.4937 12.1061L17.3872 15.9996L13.4937 19.8942C13.0487 20.3394 13.0486 21.074 13.4937 21.5192C13.7232 21.7487 14.0153 21.857 14.3062 21.8571C14.5971 21.8571 14.89 21.7488 15.1196 21.5192L19.8257 16.8131L19.8247 16.8121C20.2842 16.3664 20.2842 15.6303 19.8237 15.1852L15.1196 10.4801Z" fill="white" stroke="#0C68F4" stroke-width="0.3"/>
</g>
<defs>
<clipPath id="clip0_2919_46672">
<rect width="32" height="32" rx="16" fill="white"/>
</clipPath>
</defs>
</svg>
