<svg width="214" height="33" viewBox="0 0 214 33" fill="none" xmlns="http://www.w3.org/2000/svg">
<path d="M175.924 1.01205L176.343 24.9085H176.137L169.199 1.01205H157.827V31.1139H165.351L164.931 6.38525H165.138L172.562 31.1139H183.448V1.01205H175.924ZM32.5654 1.01205L26.8793 31.4269H35.0956L39.2903 3.75525H39.4634L43.5582 31.4269H51.7079L46.0883 1.01205H32.5654ZM78.5472 1.01205L74.7986 24.2093H74.5922L70.8103 1.01205H58.3927L57.8001 31.4269H65.4305L65.6369 4.06818H65.7035L70.8037 31.4269H78.5339L83.6341 4.06818H83.8405L84.0469 31.4269H91.6773L90.9515 1.01205H78.5472ZM14.0422 22.7911C14.3552 23.4836 14.2486 24.5223 14.1488 25.0083C13.9423 26.047 13.2099 27.0524 11.1992 27.0524C9.25495 27.0524 8.14968 25.9405 8.14968 24.3159V21.3663H0V23.69C0 30.5214 5.3732 32.5321 11.0993 32.5321C16.579 32.5321 21.1532 30.6279 21.8856 25.6342C22.3051 22.9975 21.9922 21.2664 21.8856 20.6405C20.4608 14.222 8.8488 12.4243 8.04981 8.8488C7.94328 8.22292 7.94328 7.637 8.04981 7.21753C8.25621 6.21214 8.94867 5.17345 10.7863 5.17345C12.624 5.17345 13.6294 6.28538 13.6294 7.90999V9.74766H21.2598V7.63034C21.2598 1.00539 15.2607 0 10.9927 0C5.5796 0 1.11193 1.80438 0.312937 6.69153C0.106532 8.00986 0 9.25495 0.419469 10.7863C1.63127 17.0651 12.5241 18.9027 14.0489 22.7845L14.0422 22.7911ZM113.05 22.7911C113.363 23.4836 113.257 24.4224 113.157 25.0083C112.95 26.047 112.218 27.0524 110.207 27.0524C108.263 27.0524 107.158 25.9405 107.158 24.3159V21.3663H99.008V23.69C99.008 30.4148 104.281 32.4656 110.001 32.4656C115.48 32.4656 119.955 30.6279 120.681 25.5277C121.1 22.891 120.787 21.2597 120.681 20.534C119.469 14.222 107.957 12.3177 107.158 8.8488C107.051 8.22292 107.051 7.637 107.158 7.21753C107.331 6.21214 108.057 5.17345 109.894 5.17345C111.625 5.17345 112.737 6.28538 112.737 7.90999V9.74766H120.261V7.63034C120.261 1.00539 114.369 0 110.101 0C104.687 0 100.32 1.69785 99.5207 6.69153C99.3143 8.00986 99.3143 9.25495 99.5872 10.7863C100.839 17.0651 111.519 18.7962 113.044 22.7845L113.05 22.7911ZM138.678 26.8527C140.828 26.8527 141.414 25.4278 141.627 24.6355C141.734 24.3225 141.734 23.8032 141.734 23.4903V1.01871H149.464V22.8977C149.464 23.4903 149.464 24.6288 149.358 24.9085C148.872 30.6279 144.364 32.4656 138.778 32.4656C133.191 32.4656 128.724 30.6279 128.198 24.9085C128.198 24.6288 128.091 23.4836 128.091 22.8977V1.01871H135.821V23.4903C135.821 23.9097 135.821 24.3225 135.928 24.6355C135.928 25.4345 136.554 26.8527 138.664 26.8527H138.678ZM202.177 26.5397C204.434 26.5397 205.127 25.1149 205.333 24.3225C205.44 24.0096 205.44 23.4903 205.44 23.2106V18.8095H202.284V14.3352H213.07V22.4849C213.07 23.1107 213.07 23.4903 212.964 24.5289C212.444 30.1152 207.657 32.0528 202.284 32.0528C196.871 32.0528 192.123 30.1085 191.604 24.5289C191.498 23.4903 191.498 23.1041 191.498 22.4849V9.65444C191.498 9.16839 191.604 8.12971 191.604 7.64366C192.297 1.92423 196.877 0.0865603 202.284 0.0865603C207.657 0.0865603 212.338 1.92423 212.964 7.64366C213.07 8.54252 213.07 9.65444 213.07 9.65444V10.6931H205.44V8.96199C205.44 8.96199 205.44 8.23624 205.333 7.81677C205.227 7.12431 204.608 5.59958 202.284 5.59958C200.027 5.59958 199.441 7.02444 199.234 7.81677C199.128 8.23624 199.128 8.75558 199.128 9.27493V23.2173C199.128 23.5968 199.128 24.0163 199.234 24.3292C199.234 25.1282 200.033 26.5464 202.184 26.5464L202.177 26.5397Z" fill="#063A88"/>
</svg>
