<svg width="199" height="35" viewBox="0 0 199 35" fill="none" xmlns="http://www.w3.org/2000/svg">
<path d="M67.6337 34.6323C58.9929 33.7371 51.8323 29.6508 49.0613 24.0177C47.8926 21.6405 47.8263 21.2841 47.8263 17.3419C47.8263 13.3981 47.8926 13.0434 49.0613 10.6678C51.3013 6.12059 56.1441 2.71224 62.9636 0.885395C67.3013 -0.275034 74.9031 -0.275031 79.3256 0.893687C85.5553 2.53486 90.355 6.0692 92.6225 10.6744C93.7912 13.0467 93.8542 13.3965 93.8492 17.337C93.8436 21.0205 93.7332 21.7317 92.8645 23.5701C90.1418 29.3391 84.2605 33.089 75.9745 34.3389C72.5095 34.8694 70.5311 34.9307 67.6337 34.6323ZM75.6131 29.3656C79.638 28.1057 82.9236 24.7107 83.8851 20.8199C84.1305 19.8253 84.2515 17.7879 84.1553 16.2926C83.7475 10.0196 79.7779 5.84043 73.1291 4.68166C67.1015 3.63727 60.7442 6.72235 58.4848 11.8001C57.3808 14.2817 57.157 18.7212 58.0008 21.4034C60.1562 28.2566 67.934 31.7727 75.6131 29.3656ZM14.9142 33.7537C12.9985 33.3393 10.2927 32.5767 8.90154 32.0761C7.51069 31.5787 6.23388 31.2472 6.06512 31.3466C5.89603 31.5124 5.75844 31.9434 5.75844 32.4573C5.75844 33.336 5.65897 33.3691 3.30596 33.3691H0.853637V27.3332V21.2957H3.1173C5.24255 21.2957 5.38113 21.2957 5.38113 22.1743C5.38113 24.2266 8.95957 27.5653 12.1053 28.4472C18.1576 30.1448 23.6862 30.347 27.9694 29.0275C31.3762 27.9831 32.7033 25.7783 31.2143 23.653C30.4086 22.5092 28.9334 22.161 19.9742 21.0967C8.09703 19.6711 5.28283 18.9218 2.61202 16.4385C-0.711448 13.3484 -0.887004 8.21765 2.22079 5.00492C4.04565 3.1184 5.56846 2.32599 9.78679 1.06775C15.9434 -0.769043 24.7517 -0.192142 30.9411 2.46027C33.1777 3.42176 33.6777 3.37203 33.6777 2.21161C33.6777 1.28326 33.744 1.25011 35.847 1.36615L38.0165 1.53192L38.116 6.59636C38.232 12.2427 38.2155 12.2692 35.728 12.2792C34.3255 12.2841 34.1614 12.1134 33.7284 10.9861C32.9974 8.9653 30.3244 6.86658 27.1642 5.83048C24.7656 5.05134 23.7293 4.9353 18.7685 4.95187C11.9609 4.96679 9.78016 5.58182 8.68388 7.76177C8.12853 8.87246 8.10698 9.17086 8.53468 9.83065C9.29559 10.9911 10.9275 11.3724 18.767 12.2775C22.7098 12.7251 27.1241 13.3219 28.5766 13.6037C36.3657 15.0957 40.0552 18.3465 40.0756 23.7193C40.0922 30.0287 33.7589 33.9228 22.7285 34.3737C19.2897 34.5395 17.6673 34.3737 14.9066 33.7935L14.9142 33.7537ZM99.326 30.9339V28.8517H101.927C103.95 28.8517 104.578 28.686 104.756 28.2549C104.889 27.9234 104.985 23.0164 104.985 17.3403C104.985 5.29502 105.156 5.83712 101.374 5.83712H98.9483V3.7616V1.68775H106.517H114.086L119.44 6.47369C122.384 9.10786 127.14 13.3948 130.009 16.0008C132.877 18.6085 135.339 20.7834 135.479 20.8348C135.889 21.0006 135.397 6.66764 134.979 6.25155C134.772 6.03604 133.412 5.82054 131.961 5.75423L129.32 5.58845V3.70193V1.8154H138.375H147.429L147.545 3.79641L147.661 5.77743H144.837C142.308 5.77743 141.988 5.77743 141.764 6.55658C141.632 6.98759 141.632 13.1097 141.797 20.1601L142.074 32.9779L138.945 32.8121H135.816L129.932 27.6316C126.696 24.7836 121.161 19.875 117.634 16.7236L111.22 10.9944L111.12 19.0328C111.054 23.4557 111.105 27.4476 111.22 27.9068C111.405 28.6694 111.691 28.7523 114.345 28.8517L117.266 29.0175V30.904V32.7889L108.305 32.9547L99.3442 33.1204V31.04L99.326 30.9339ZM164.751 32.4756C164.635 32.1772 164.602 31.282 164.668 30.4896L164.784 29.0308L167.237 28.865C170.404 28.6992 170.632 28.4174 170.632 24.2481V20.989L164.219 13.7695C160.692 9.79915 157.477 6.37422 157.075 6.16037C156.674 5.94487 155.23 5.76252 153.868 5.76252H151.39V3.68037V1.59989L162.049 1.76566L172.707 1.93144L172.823 3.91246L172.939 5.89348H171.222C170.249 5.89348 169.504 6.07583 169.504 6.29134C169.504 6.50685 171.229 8.73155 173.337 11.2198C176.99 15.5317 177.2 15.7107 177.805 15.0592C180.893 11.7321 184.985 6.58642 184.792 6.27476C184.659 6.05926 183.882 5.89348 183.064 5.89348H181.577V3.81797V1.74246H190.255H198.933V3.80139V5.86032L196.017 6.02609L193.1 6.19187L186.572 13.539L180.045 20.8862L180.144 24.8582L180.243 28.8302L183.187 28.996L186.13 29.1617L186.014 31.1262L185.898 33.0906L175.418 33.2564C166.68 33.4222 164.905 33.268 164.735 32.8254L164.751 32.4756Z" fill="#0C0C0C"/>
</svg>
