<svg width="18" height="18" viewBox="0 0 18 18" fill="none" xmlns="http://www.w3.org/2000/svg">
<path d="M7.78061 0.829113C8.13983 -0.27646 9.70392 -0.276462 10.0631 0.829111L11.3466 4.77927C11.5073 5.27369 11.968 5.60845 12.4879 5.60845H16.6413C17.8038 5.60845 18.2871 7.09598 17.3467 7.77927L13.9865 10.2206C13.5659 10.5262 13.3899 11.0678 13.5505 11.5622L14.834 15.5124C15.1933 16.618 13.9279 17.5373 12.9874 16.854L9.62722 14.4127C9.20663 14.1071 8.63712 14.1071 8.21653 14.4127L4.85633 16.854C3.91588 17.5373 2.6505 16.618 3.00972 15.5124L4.2932 11.5622C4.45385 11.0678 4.27786 10.5262 3.85728 10.2206L0.497076 7.77927C-0.443381 7.09599 0.0399497 5.60845 1.20242 5.60845H5.35586C5.87573 5.60845 6.33647 5.27369 6.49712 4.77927L7.78061 0.829113Z" fill="#063A88"/>
</svg>
